<svg width="24" height="24" viewBox="0 0 24 24" fill="none" xmlns="http://www.w3.org/2000/svg">
<path d="M8.99999 17.75C8.88999 17.75 8.76999 17.72 8.66999 17.67C7.89999 17.28 7.23999 16.7 6.75999 15.98C6.35999 15.38 6.35999 14.61 6.75999 14.01C7.23803 13.2919 7.8968 12.7125 8.66999 12.33C9.03999 12.14 9.48999 12.3 9.67999 12.67C9.86999 13.04 9.71999 13.49 9.33999 13.68C8.79999 13.95 8.33999 14.36 8.00999 14.86C7.98066 14.9064 7.96509 14.9601 7.96509 15.015C7.96509 15.0699 7.98066 15.1236 8.00999 15.17C8.33999 15.67 8.79999 16.08 9.33999 16.35C9.70999 16.54 9.85999 16.99 9.67999 17.36C9.53999 17.6 9.26999 17.75 8.99999 17.75ZM15.21 17.75C14.93 17.75 14.67 17.6 14.54 17.34C14.4948 17.2516 14.4678 17.155 14.4605 17.056C14.4532 16.957 14.4657 16.8575 14.4974 16.7634C14.5291 16.6693 14.5792 16.5825 14.6449 16.5081C14.7106 16.4337 14.7906 16.3731 14.88 16.33C15.42 16.06 15.88 15.65 16.21 15.15C16.2393 15.1036 16.2549 15.0499 16.2549 14.995C16.2549 14.9401 16.2393 14.8864 16.21 14.84C15.88 14.34 15.42 13.93 14.88 13.66C14.7027 13.5693 14.568 13.4129 14.5044 13.2242C14.4409 13.0355 14.4537 12.8294 14.54 12.65C14.73 12.28 15.18 12.13 15.55 12.31C16.32 12.7 16.98 13.28 17.46 14C17.86 14.6 17.86 15.37 17.46 15.97C16.982 16.6881 16.3232 17.2675 15.55 17.65C15.4479 17.7137 15.3303 17.7483 15.21 17.75Z" fill="white"/>
<path d="M15 22.75H9C3.57 22.75 1.25 20.43 1.25 15V9C1.25 3.57 3.57 1.25 9 1.25H15C20.43 1.25 22.75 3.57 22.75 9V15C22.75 20.43 20.43 22.75 15 22.75ZM9 2.75C4.39 2.75 2.75 4.39 2.75 9V15C2.75 19.61 4.39 21.25 9 21.25H15C19.61 21.25 21.25 19.61 21.25 15V9C21.25 4.39 19.61 2.75 15 2.75H9Z" fill="white"/>
<path d="M2.23001 8.76C2.0311 8.76 1.84033 8.68098 1.69968 8.54033C1.55903 8.39968 1.48001 8.20891 1.48001 8.01C1.48001 7.81109 1.55903 7.62032 1.69968 7.47967C1.84033 7.33902 2.0311 7.26 2.23001 7.26L21.45 7.25C21.6489 7.25 21.8397 7.32902 21.9803 7.46967C22.121 7.61032 22.2 7.80109 22.2 8C22.2 8.19891 22.121 8.38968 21.9803 8.53033C21.8397 8.67098 21.6489 8.75 21.45 8.75L2.23001 8.76Z" fill="white"/>
</svg>
